<svg width="16" height="16" viewBox="0 0 16 16" fill="none" xmlns="http://www.w3.org/2000/svg">
<path d="M15.3322 11.0228L13.9035 9.59413C13.4776 9.17167 12.9028 8.9335 12.303 8.93094C11.7031 8.92839 11.1263 9.16167 10.6968 9.58049C10.4677 9.81095 10.1653 9.95434 9.8419 9.98598C9.51845 10.0176 9.19408 9.93555 8.92461 9.75388C7.86103 9.04407 6.94733 8.13214 6.23546 7.06993C6.05699 6.79746 5.97788 6.47179 6.01147 6.1478C6.04507 5.82381 6.18931 5.5213 6.41989 5.29124C6.83492 4.86139 7.06519 4.28615 7.06143 3.68865C7.05767 3.09115 6.82017 2.51887 6.39976 2.09427L4.97109 0.665604C4.54337 0.239346 3.96413 0 3.36027 0C2.75641 0 2.17717 0.239346 1.74945 0.665604L1.33838 1.07732C-0.804622 3.22032 -0.644222 7.72582 3.81452 12.182C6.50301 14.8711 9.20904 15.9972 11.4033 15.9972C12.0493 16.0187 12.693 15.9114 13.2971 15.6816C13.9011 15.4518 14.4534 15.1041 14.9218 14.6588L15.3335 14.247C15.7605 13.8191 16.0002 13.2392 16 12.6347C15.9998 12.0301 15.7596 11.4504 15.3322 11.0228ZM14.4139 13.3288L14.0022 13.7405C12.3138 15.4289 8.58692 15.1205 4.73147 11.2644C0.876011 7.40827 0.566899 3.67879 2.25532 1.99037L2.66379 1.5793C2.84771 1.39605 3.09675 1.29316 3.35637 1.29316C3.616 1.29316 3.86504 1.39605 4.04895 1.5793L5.47762 3.00797C5.65819 3.18945 5.76069 3.43431 5.76324 3.69031C5.76579 3.9463 5.66818 4.19316 5.49126 4.37819C5.05245 4.8198 4.77872 5.39879 4.71595 6.01818C4.65317 6.63756 4.80515 7.2597 5.14643 7.78037C5.95528 8.99078 6.99541 10.0294 8.20703 10.8364C8.72614 11.1777 9.34665 11.3306 9.96491 11.2695C10.5832 11.2084 11.1618 10.937 11.604 10.5007C11.7887 10.3217 12.0362 10.2223 12.2934 10.2238C12.5506 10.2254 12.797 10.3279 12.9794 10.5091L14.4081 11.9378C14.5002 12.0285 14.5734 12.1366 14.6236 12.2558C14.6737 12.3749 14.6998 12.5028 14.7004 12.6321C14.7009 12.7614 14.6759 12.8895 14.6267 13.009C14.5776 13.1286 14.5053 13.2373 14.4139 13.3288Z" fill="black"/>
</svg>
